<svg width="150" height="150" viewBox="0 0 150 150" fill="none" xmlns="http://www.w3.org/2000/svg">
<rect width="150" height="150" fill="white"/>
<path d="M92.7778 78.5556H78.5556V92.7778H71.4444V78.5556H57.2222V71.4444H71.4444V57.2222H78.5556V71.4444H92.7778M99.8889 43H50.1111C46.1644 43 43 46.1644 43 50.1111V99.8889C43 101.775 43.7492 103.584 45.0828 104.917C46.4164 106.251 48.2251 107 50.1111 107H99.8889C101.775 107 103.584 106.251 104.917 104.917C106.251 103.584 107 101.775 107 99.8889V50.1111C107 48.2251 106.251 46.4164 104.917 45.0828C103.584 43.7492 101.775 43 99.8889 43Z" fill="#212529"/>
</svg>
