<svg width="150" height="150" viewBox="0 0 150 150" fill="none" xmlns="http://www.w3.org/2000/svg">
<rect width="150" height="150" fill="white"/>
<path d="M99.8889 43C101.775 43 103.584 43.7492 104.917 45.0828C106.251 46.4164 107 48.2251 107 50.1111V99.8889C107 101.775 106.251 103.584 104.917 104.917C103.584 106.251 101.775 107 99.8889 107H50.1111C48.2251 107 46.4164 106.251 45.0828 104.917C43.7492 103.584 43 101.775 43 99.8889V50.1111C43 48.2251 43.7492 46.4164 45.0828 45.0828C46.4164 43.7492 48.2251 43 50.1111 43H99.8889ZM91.7111 65.5778C92.4933 64.8311 92.4933 63.5867 91.7111 62.84L87.16 58.2889C86.9834 58.1037 86.771 57.9562 86.5357 57.8555C86.3004 57.7547 86.0471 57.7028 85.7911 57.7028C85.5352 57.7028 85.2819 57.7547 85.0466 57.8555C84.8113 57.9562 84.5989 58.1037 84.4222 58.2889L80.8667 61.8444L88.1556 69.1333L91.7111 65.5778ZM57.2222 85.4533V92.7778H64.5467L86.0933 71.2311L78.7689 63.9067L57.2222 85.4533Z" fill="#212529"/>
</svg>
