<svg width="150" height="150" viewBox="0 0 150 150" fill="none" xmlns="http://www.w3.org/2000/svg">
<rect width="150" height="150" fill="white"/>
<path fill-rule="evenodd" clip-rule="evenodd" d="M49 43C45.6863 43 43 45.6863 43 49V101C43 104.314 45.6863 107 49 107H101C104.314 107 107 104.314 107 101V49C107 45.6863 104.314 43 101 43H49ZM82.1111 59.1975H89.2222V63.1481H60.7778V59.1975H67.8889L69.9206 57.2222H80.0794L82.1111 59.1975ZM63.9997 91.6207C63.2376 90.8798 62.8095 89.8749 62.8095 88.8272V65.1235H87.1905V88.8272C87.1905 89.8749 86.7624 90.8798 86.0003 91.6207C85.2383 92.3616 84.2047 92.7778 83.127 92.7778H66.873C65.7953 92.7778 64.7617 92.3616 63.9997 91.6207Z" fill="#212529"/>
</svg>
