<svg width="150" height="150" viewBox="0 0 150 150" fill="none" xmlns="http://www.w3.org/2000/svg">
<rect width="150" height="150" fill="white"/>
<path fill-rule="evenodd" clip-rule="evenodd" d="M49 43C45.6863 43 43 45.6863 43 49V101C43 104.314 45.6863 107 49 107H101C104.314 107 107 104.314 107 101V49C107 45.6863 104.314 43 101 43H49ZM70.8859 71.2865C71.977 70.3017 73.4569 69.7485 75 69.7485C76.5431 69.7485 78.023 70.3017 79.1141 71.2865C80.2052 72.2713 80.8182 73.607 80.8182 74.9997C80.8182 76.3925 80.2052 77.7281 79.1141 78.713C78.023 79.6978 76.5431 80.251 75 80.251C73.4569 80.251 71.977 79.6978 70.8859 78.713C69.7948 77.7281 69.1818 76.3925 69.1818 74.9997C69.1818 73.607 69.7948 72.2713 70.8859 71.2865ZM68.1432 81.1884C69.9617 82.8298 72.4282 83.7519 75 83.7519C77.5718 83.7519 80.0383 82.8298 81.8568 81.1884C83.6753 79.5471 84.697 77.3209 84.697 74.9997C84.697 72.6785 83.6753 70.4524 81.8568 68.811C80.0383 67.1697 77.5718 66.2476 75 66.2476C72.4282 66.2476 69.9617 67.1697 68.1432 68.811C66.3247 70.4524 65.303 72.6785 65.303 74.9997C65.303 77.3209 66.3247 79.5471 68.1432 81.1884ZM53.6667 74.9997C57.0218 67.3154 65.303 61.8715 75 61.8715C84.697 61.8715 92.9782 67.3154 96.3333 74.9997C92.9782 82.6841 84.697 88.1279 75 88.1279C65.303 88.1279 57.0218 82.6841 53.6667 74.9997Z" fill="#212529"/>
</svg>
